<svg width="40" height="40" xmlns="http://www.w3.org/2000/svg" clip-rule="evenodd" version="1.1">

 <g>
  <title>Layer 1</title>
  <g stroke="null" id="svg_13">
   <g stroke="null" id="svg_1">
    <path stroke="null" id="svg_2" opacity="0.992" d="m7.06062,6.57458c6.32029,-0.00727 12.64058,0 18.96088,0.02176c0.86468,0.17039 1.37001,0.69995 1.51602,1.58861c0.00077,1.12091 0.02925,2.23798 0.08541,3.35131c0.02135,0.02176 0.0427,0.04352 0.06406,0.06529c0.94053,0.00518 1.88003,0.03421 2.81851,0.08705c0.93412,0.19625 1.68145,0.68223 2.242,1.45804c0.61145,1.24634 1.22353,2.49399 1.8363,3.74302c0.27416,0.44085 0.65137,0.75274 1.13167,0.93576c0.7092,0.22641 1.42096,0.44403 2.13523,0.65285c0.52279,0.31676 0.82886,0.78825 0.91815,1.41452c0.07068,0.34458 0.11338,0.69276 0.12811,1.04456c0.02848,1.55235 0.02848,3.10466 0,4.65702c-0.15092,0.86464 -0.64202,1.40868 -1.47331,1.63213c-0.89496,0.06999 -1.79176,0.08452 -2.69039,0.04352c-0.07426,-1.99521 -0.98528,-3.43148 -2.7331,-4.30883c-1.87546,-0.69181 -3.51959,-0.32186 -4.93239,1.10985c-0.76253,0.89471 -1.14688,1.93928 -1.15303,3.13369c-0.03203,0.02725 -0.06764,0.04901 -0.10676,0.06529c-2.9324,0.02903 -5.86476,0.02903 -8.79716,0c-0.06419,-1.58165 -0.70476,-2.85836 -1.92171,-3.83007c-1.63969,-1.0685 -3.29091,-1.09753 -4.95374,-0.08705c-1.28281,0.94098 -1.95186,2.22492 -2.00712,3.85183c-0.05248,0.03399 -0.10941,0.05575 -0.17082,0.06529c-0.45553,0.02903 -0.91102,0.02903 -1.36655,0c-0.99472,-0.18685 -1.57123,-0.78891 -1.72954,-1.80623c-0.02848,-1.50883 -0.02848,-3.01762 0,-4.52645c0.10967,-0.34292 0.34454,-0.50975 0.70463,-0.50052c2.42187,-0.0007 4.84177,-0.02973 7.2598,-0.08705c0.65449,-0.24617 1.04592,-0.7177 1.17438,-1.41452c0.16253,-0.79927 -0.02964,-1.48837 -0.57651,-2.06737c-0.26268,-0.21357 -0.56161,-0.34414 -0.8968,-0.39171c-2.46453,-0.0007 -4.92718,-0.02973 -7.38791,-0.08705c-0.13905,-0.06907 -0.23159,-0.17788 -0.27758,-0.32643c-0.03656,-0.33652 -0.02233,-0.67018 0.0427,-1.00104c0.06589,-0.08174 0.14417,-0.14702 0.23488,-0.19586c3.50178,-0.01449 7.00357,-0.02903 10.50535,-0.04352c0.85426,-0.13431 1.35959,-0.63483 1.51602,-1.50156c0.16928,-0.83848 -0.05137,-1.54213 -0.66192,-2.11089c-0.19678,-0.13653 -0.41031,-0.23807 -0.64057,-0.30466c-3.60376,-0.04291 -7.20522,-0.08644 -10.80428,-0.13057c-0.11449,-0.09549 -0.17855,-0.21879 -0.19217,-0.36995c-0.02848,-0.68188 -0.02848,-1.36372 0,-2.04561c0.15186,-0.88026 0.65718,-1.42431 1.51602,-1.63213c0.23291,-0.05462 0.46066,-0.10541 0.68327,-0.15233zm20.75447,6.44148c0.65624,-0.01467 1.31103,0.00709 1.96442,0.06529c0.86191,0.19612 1.53805,0.66761 2.02847,1.41452c0.54735,1.15916 1.10251,2.30527 1.66548,3.43836c-0.03203,0.02725 -0.06764,0.04901 -0.10676,0.06529c-1.89323,0.02903 -3.7865,0.02903 -5.67972,0c-0.05129,-0.0393 -0.0869,-0.09005 -0.10676,-0.15233c-0.02848,-1.56685 -0.02848,-3.13369 0,-4.70054c0.07341,-0.05958 0.15169,-0.10311 0.23488,-0.13057z" fill="#272b33"/>
   </g>
   <g stroke="null" id="svg_3">
    <path stroke="null" id="svg_4" opacity="0.981" d="m3.38802,11.71036c4.11391,-0.00727 8.22778,0 12.34165,0.02176c0.2877,0.07556 0.47987,0.25692 0.57651,0.54404c0.09468,0.42492 0.08041,0.84566 -0.0427,1.26218c-0.16117,0.26728 -0.39604,0.41961 -0.70463,0.457c-4.00002,0.02903 -8,0.02903 -12.00001,0c-0.48248,-0.07099 -0.7458,-0.35389 -0.79004,-0.84871c-0.08288,-0.45974 0.00965,-0.87321 0.27758,-1.24042c0.11099,-0.07812 0.22488,-0.14341 0.34164,-0.19586z" fill="#272b33"/>
   </g>
   <g stroke="null" id="svg_5">
    <path stroke="null" id="svg_6" opacity="0.981" d="m1.33819,17.28137c3.70109,-0.00727 7.40217,0 11.10322,0.02176c0.33233,0.04831 0.5672,0.22967 0.70463,0.54404c0.06534,0.3454 0.07956,0.69359 0.0427,1.04456c-0.07396,0.35102 -0.28036,0.5759 -0.61922,0.67461c-3.7865,0.02903 -7.57295,0.02903 -11.35944,0c-0.30205,-0.09018 -0.50846,-0.28604 -0.61922,-0.58757c-0.02847,-0.34819 -0.02847,-0.69638 0,-1.04456c0.1276,-0.36555 0.37671,-0.58317 0.74733,-0.65285z" fill="#272b33"/>
   </g>
   <g stroke="null" id="svg_7">
    <path stroke="null" id="svg_8" opacity="0.976" d="m12.52682,23.59229c2.09155,0.18759 3.23035,1.34823 3.41637,3.48188c-0.07008,1.4714 -0.75335,2.52323 -2.04982,3.15546c-1.6832,0.58857 -3.07111,0.1751 -4.16371,-1.24042c-0.85444,-1.51875 -0.74058,-2.95503 0.34164,-4.30883c0.68554,-0.67953 1.50406,-1.04221 2.45552,-1.08809zm-0.25623,2.00208c0.85102,-0.06359 1.41327,0.31363 1.68683,1.13161c0.10676,0.89171 -0.25623,1.47928 -1.08897,1.7627c-0.89377,0.10393 -1.47028,-0.28051 -1.72954,-1.15337c-0.07349,-0.8891 0.30376,-1.4694 1.13167,-1.74094z" fill="#272b33"/>
   </g>
   <g stroke="null" id="svg_9">
    <path stroke="null" id="svg_10" opacity="0.976" d="m30.24926,23.59229c1.72228,0.09723 2.83973,0.98224 3.35232,2.65494c0.30397,1.88335 -0.38643,3.22531 -2.07118,4.02593c-1.59681,0.50679 -2.92775,0.10785 -3.99289,-1.1969c-0.87305,-1.46078 -0.81613,-2.88252 0.17082,-4.26531c0.6843,-0.76588 1.53126,-1.17209 2.54093,-1.21866zm-0.21352,2.00208c1.23502,0.00353 1.78305,0.62735 1.64413,1.87151c-0.17257,0.55314 -0.53556,0.89406 -1.08897,1.0228c-1.01432,0.06898 -1.59797,-0.40977 -1.75089,-1.43628c0.08362,-0.75944 0.48218,-1.24547 1.19573,-1.45804z" fill="#272b33"/>
   </g>
  </g>
 </g>
</svg>