<svg width="25" height="25" xmlns="http://www.w3.org/2000/svg" stroke="null" style="vector-effect: non-scaling-stroke;" preserveAspectRatio="xMidYMid meet">

 <g stroke="null">
  <title stroke="null">background</title>
  <rect stroke="null" fill="none" id="canvas_background" height="27" width="27" y="-1" x="-1"/>
 </g>
 <g stroke="null">
  <title stroke="null">Layer 1</title>
  <g transform="rotate(179.64027404785156 12.172243118286133,12.616825103759766) " id="svg_1" fill="#000000">
   <path fill="#4c4c4c" stroke="null" id="svg_2" d="m6.41853,22.23931l-5.46603,-2.52286l-0.05754,-7.10989l-0.03836,-7.10989l0.70962,-0.38225c0.40276,-0.19113 2.66589,-1.24232 5.04409,-2.31262c2.3782,-1.07031 4.58379,-2.06416 4.90984,-2.21706c0.57537,-0.26758 0.69045,-0.22935 5.71536,2.02594c2.81932,1.26143 5.38931,2.4273 5.69618,2.5802l0.55619,0.3058l0,7.10989l0,7.10989l-5.61946,2.54198c-3.06865,1.39522 -5.677,2.52286 -5.79207,2.50375c-0.0959,0 -2.64671,-1.14676 -5.65782,-2.52286zm9.76214,-1.54812l3.45223,-1.56723l-3.73991,-1.70102l-3.72074,-1.68191l-3.73991,1.70102c-2.66589,1.20409 -3.64402,1.73925 -3.41387,1.8157c0.19179,0.07645 1.86037,0.84095 3.70156,1.68191c1.89873,0.87918 3.49059,1.49078 3.68238,1.43345c0.19179,-0.05734 1.87955,-0.80273 3.77827,-1.68191zm-8.86072,-5.04573l3.70156,-1.6628l0,-5.38975c0,-2.98157 -0.05754,-5.40887 -0.13425,-5.38975c-0.0959,0 -1.87955,0.80273 -3.98924,1.77747l-3.83581,1.75836l-0.05754,5.40887c-0.03836,5.10306 -0.01918,5.40887 0.28769,5.29419c0.19179,-0.07645 2.0138,-0.87918 4.0276,-1.79658zm14.01989,-3.51672l-0.05754,-5.38975l-3.91253,-1.77747c-2.14805,-0.99386 -3.93171,-1.75836 -3.97006,-1.72013c-0.15343,0.13379 -0.0959,10.74128 0.05754,10.77951c0.07672,0.03823 1.84119,0.84095 3.89335,1.77747c2.05216,0.93652 3.79745,1.70102 3.89335,1.72013c0.07672,0 0.11507,-2.4273 0.0959,-5.38975z"/>
  </g>
  <path id="svg_3" d="m2.0648,8.25813" opacity="0.5" stroke-width="0" stroke="#555" fill="none"/>
 </g>
</svg>