<svg width="23.999999999999996" height="23.999999999999996" xmlns="http://www.w3.org/2000/svg" class="icon glyph" fill="#000000">
 <g>
  <title>Layer 1</title>
  <path fill="#4c4c4c" id="svg_1" d="m12,3a9,9 0 0 0 -6,2.32l0,-2.32a1,1 0 0 0 -2,0l0,5a1,1 0 0 0 0.92,1l5.08,0a1,1 0 0 0 0,-2l-2.89,0a7,7 0 0 1 11.89,5a1,1 0 0 0 2,0a9,9 0 0 0 -9,-9z"/>
  <path fill="#4c4c4c" id="svg_2" d="m19.08,15l-5.08,0a1,1 0 0 0 0,2l2.89,0a7,7 0 0 1 -11.89,-5a1,1 0 0 0 -2,0a9,9 0 0 0 15,6.68l0,2.32a1,1 0 0 0 2,0l0,-5a1,1 0 0 0 -0.92,-1z"/>
  <path fill="#fff" stroke="#000" opacity="NaN" d="m226,251l478.61539,-36.38461l-523.84615,65" id="svg_4"/>
 </g>

</svg>